<mxfile host="app.diagrams.net" agent="Mozilla/5.0 (Windows NT 10.0; Win64; x64) AppleWebKit/537.36 (KHTML, like Gecko) Chrome/130.0.0.0 Safari/537.36" version="24.8.3">
  <diagram id="C5RBs43oDa-KdzZeNtuy" name="Page-1">
    <mxGraphModel dx="862" dy="1085" grid="1" gridSize="10" guides="1" tooltips="1" connect="1" arrows="1" fold="1" page="1" pageScale="1" pageWidth="827" pageHeight="1169" math="0" shadow="0">
      <root>
        <mxCell id="WIyWlLk6GJQsqaUBKTNV-0" />
        <mxCell id="WIyWlLk6GJQsqaUBKTNV-1" parent="WIyWlLk6GJQsqaUBKTNV-0" />
        <mxCell id="i3vQC6eebiwim4Twtcch-16" value="NGUOI" style="swimlane;whiteSpace=wrap;html=1;align=center;verticalAlign=middle;fontFamily=Helvetica;fontSize=12;fontColor=default;autosize=1;resizable=1;fillColor=none;gradientColor=none;startSize=38;movable=1;rotatable=1;deletable=1;editable=1;locked=0;connectable=1;" parent="WIyWlLk6GJQsqaUBKTNV-1" vertex="1">
          <mxGeometry x="20" y="20" width="120" height="190" as="geometry">
            <mxRectangle x="80" y="120" width="140" height="40" as="alternateBounds" />
          </mxGeometry>
        </mxCell>
        <mxCell id="i3vQC6eebiwim4Twtcch-18" value="GIOI TINH: bool" style="text;html=1;align=center;verticalAlign=middle;resizable=0;points=[];autosize=1;strokeColor=none;fillColor=none;fontFamily=Helvetica;fontSize=12;fontColor=default;" parent="i3vQC6eebiwim4Twtcch-16" vertex="1">
          <mxGeometry y="70" width="110" height="30" as="geometry" />
        </mxCell>
        <mxCell id="i3vQC6eebiwim4Twtcch-19" value="ID: string" style="text;html=1;align=center;verticalAlign=middle;resizable=0;points=[];autosize=1;strokeColor=none;fillColor=none;fontFamily=Helvetica;fontSize=12;fontColor=default;" parent="i3vQC6eebiwim4Twtcch-16" vertex="1">
          <mxGeometry y="100" width="70" height="30" as="geometry" />
        </mxCell>
        <mxCell id="i3vQC6eebiwim4Twtcch-24" value="SĐT: string" style="text;html=1;align=center;verticalAlign=middle;resizable=0;points=[];autosize=1;strokeColor=none;fillColor=none;fontFamily=Helvetica;fontSize=12;fontColor=default;" parent="i3vQC6eebiwim4Twtcch-16" vertex="1">
          <mxGeometry y="130" width="80" height="30" as="geometry" />
        </mxCell>
        <mxCell id="i3vQC6eebiwim4Twtcch-25" value="NGAY SINH: string" style="text;html=1;align=center;verticalAlign=middle;resizable=0;points=[];autosize=1;strokeColor=none;fillColor=none;fontFamily=Helvetica;fontSize=12;fontColor=default;" parent="i3vQC6eebiwim4Twtcch-16" vertex="1">
          <mxGeometry y="160" width="120" height="30" as="geometry" />
        </mxCell>
        <mxCell id="i3vQC6eebiwim4Twtcch-17" value="HO VA TEN: string" style="text;html=1;align=center;verticalAlign=middle;resizable=0;points=[];autosize=1;strokeColor=none;fillColor=none;fontFamily=Helvetica;fontSize=12;fontColor=default;" parent="i3vQC6eebiwim4Twtcch-16" vertex="1">
          <mxGeometry y="40" width="120" height="30" as="geometry" />
        </mxCell>
        <mxCell id="i3vQC6eebiwim4Twtcch-39" value="NHAN VIEN" style="swimlane;whiteSpace=wrap;html=1;startSize=40;" parent="WIyWlLk6GJQsqaUBKTNV-1" vertex="1">
          <mxGeometry x="310" y="80" width="140" height="160" as="geometry">
            <mxRectangle x="310" y="80" width="110" height="40" as="alternateBounds" />
          </mxGeometry>
        </mxCell>
        <mxCell id="i3vQC6eebiwim4Twtcch-40" value="ID NHAN VIEN: string" style="text;html=1;align=center;verticalAlign=middle;resizable=0;points=[];autosize=1;strokeColor=none;fillColor=none;" parent="i3vQC6eebiwim4Twtcch-39" vertex="1">
          <mxGeometry y="40" width="140" height="30" as="geometry" />
        </mxCell>
        <mxCell id="i3vQC6eebiwim4Twtcch-41" value="" style="endArrow=none;html=1;rounded=0;" parent="i3vQC6eebiwim4Twtcch-39" edge="1">
          <mxGeometry width="50" height="50" relative="1" as="geometry">
            <mxPoint y="70" as="sourcePoint" />
            <mxPoint x="140" y="70" as="targetPoint" />
            <Array as="points" />
          </mxGeometry>
        </mxCell>
        <mxCell id="i3vQC6eebiwim4Twtcch-45" value="TINH LUONG" style="text;html=1;align=center;verticalAlign=middle;resizable=0;points=[];autosize=1;strokeColor=none;fillColor=none;" parent="i3vQC6eebiwim4Twtcch-39" vertex="1">
          <mxGeometry y="70" width="100" height="30" as="geometry" />
        </mxCell>
        <mxCell id="7J45QRhB3qLV9kXO11zj-0" value="DANH SACH" style="text;html=1;align=center;verticalAlign=middle;resizable=0;points=[];autosize=1;strokeColor=none;fillColor=none;" parent="i3vQC6eebiwim4Twtcch-39" vertex="1">
          <mxGeometry y="100" width="90" height="30" as="geometry" />
        </mxCell>
        <mxCell id="7J45QRhB3qLV9kXO11zj-1" value="LICH LAM VIEC" style="text;html=1;align=center;verticalAlign=middle;resizable=0;points=[];autosize=1;strokeColor=none;fillColor=none;" parent="i3vQC6eebiwim4Twtcch-39" vertex="1">
          <mxGeometry y="128" width="110" height="30" as="geometry" />
        </mxCell>
        <mxCell id="7J45QRhB3qLV9kXO11zj-2" value="KHACH HANG" style="swimlane;fontStyle=0;childLayout=stackLayout;horizontal=1;startSize=30;horizontalStack=0;resizeParent=1;resizeParentMax=0;resizeLast=0;collapsible=1;marginBottom=0;whiteSpace=wrap;html=1;" parent="WIyWlLk6GJQsqaUBKTNV-1" vertex="1">
          <mxGeometry x="500" y="20" width="150" height="120" as="geometry" />
        </mxCell>
        <mxCell id="7J45QRhB3qLV9kXO11zj-3" value="TAO TAI KHOAN" style="text;strokeColor=none;fillColor=none;align=left;verticalAlign=middle;spacingLeft=4;spacingRight=4;overflow=hidden;points=[[0,0.5],[1,0.5]];portConstraint=eastwest;rotatable=0;whiteSpace=wrap;html=1;" parent="7J45QRhB3qLV9kXO11zj-2" vertex="1">
          <mxGeometry y="30" width="150" height="30" as="geometry" />
        </mxCell>
        <mxCell id="7J45QRhB3qLV9kXO11zj-4" value="CAP NHAT TAI KHOAN" style="text;strokeColor=none;fillColor=none;align=left;verticalAlign=middle;spacingLeft=4;spacingRight=4;overflow=hidden;points=[[0,0.5],[1,0.5]];portConstraint=eastwest;rotatable=0;whiteSpace=wrap;html=1;" parent="7J45QRhB3qLV9kXO11zj-2" vertex="1">
          <mxGeometry y="60" width="150" height="30" as="geometry" />
        </mxCell>
        <mxCell id="7J45QRhB3qLV9kXO11zj-5" value="LICH SU KHACH HANG" style="text;strokeColor=none;fillColor=none;align=left;verticalAlign=middle;spacingLeft=4;spacingRight=4;overflow=hidden;points=[[0,0.5],[1,0.5]];portConstraint=eastwest;rotatable=0;whiteSpace=wrap;html=1;" parent="7J45QRhB3qLV9kXO11zj-2" vertex="1">
          <mxGeometry y="90" width="150" height="30" as="geometry" />
        </mxCell>
        <mxCell id="7J45QRhB3qLV9kXO11zj-7" value="PHONG" style="swimlane;fontStyle=0;childLayout=stackLayout;horizontal=1;startSize=30;horizontalStack=0;resizeParent=1;resizeParentMax=0;resizeLast=0;collapsible=1;marginBottom=0;whiteSpace=wrap;html=1;" parent="WIyWlLk6GJQsqaUBKTNV-1" vertex="1">
          <mxGeometry x="300" y="280" width="190" height="200" as="geometry" />
        </mxCell>
        <mxCell id="7J45QRhB3qLV9kXO11zj-8" value="MA PHONG: string&amp;nbsp;" style="text;strokeColor=none;fillColor=none;align=left;verticalAlign=middle;spacingLeft=4;spacingRight=4;overflow=hidden;points=[[0,0.5],[1,0.5]];portConstraint=eastwest;rotatable=0;whiteSpace=wrap;html=1;" parent="7J45QRhB3qLV9kXO11zj-7" vertex="1">
          <mxGeometry y="30" width="190" height="30" as="geometry" />
        </mxCell>
        <mxCell id="7J45QRhB3qLV9kXO11zj-9" value="TRANG THAI: bool" style="text;strokeColor=none;fillColor=none;align=left;verticalAlign=middle;spacingLeft=4;spacingRight=4;overflow=hidden;points=[[0,0.5],[1,0.5]];portConstraint=eastwest;rotatable=0;whiteSpace=wrap;html=1;" parent="7J45QRhB3qLV9kXO11zj-7" vertex="1">
          <mxGeometry y="60" width="190" height="30" as="geometry" />
        </mxCell>
        <mxCell id="7J45QRhB3qLV9kXO11zj-10" value="&lt;div&gt;TINH TIEN PHONG&lt;/div&gt;&lt;div&gt;&lt;br&gt;&lt;/div&gt;KIEM TRA TRANG THAI&lt;div&gt;&lt;br&gt;&lt;/div&gt;&lt;div&gt;CAP NHAT TRANG THAI&lt;/div&gt;" style="text;strokeColor=none;fillColor=none;align=left;verticalAlign=middle;spacingLeft=4;spacingRight=4;overflow=hidden;points=[[0,0.5],[1,0.5]];portConstraint=eastwest;rotatable=0;whiteSpace=wrap;html=1;" parent="7J45QRhB3qLV9kXO11zj-7" vertex="1">
          <mxGeometry y="90" width="190" height="110" as="geometry" />
        </mxCell>
        <mxCell id="7J45QRhB3qLV9kXO11zj-11" value="" style="endArrow=none;html=1;rounded=0;exitX=0.007;exitY=1;exitDx=0;exitDy=0;exitPerimeter=0;entryX=1;entryY=1;entryDx=0;entryDy=0;entryPerimeter=0;" parent="7J45QRhB3qLV9kXO11zj-7" source="7J45QRhB3qLV9kXO11zj-9" target="7J45QRhB3qLV9kXO11zj-9" edge="1">
          <mxGeometry width="50" height="50" relative="1" as="geometry">
            <mxPoint x="80" y="-60" as="sourcePoint" />
            <mxPoint x="130" y="-110" as="targetPoint" />
          </mxGeometry>
        </mxCell>
        <mxCell id="7J45QRhB3qLV9kXO11zj-12" value="DAT PHONG" style="swimlane;fontStyle=0;childLayout=stackLayout;horizontal=1;startSize=30;horizontalStack=0;resizeParent=1;resizeParentMax=0;resizeLast=0;collapsible=1;marginBottom=0;whiteSpace=wrap;html=1;points=[[0,0,0,0,0],[0,0.25,0,0,0],[0,0.5,0,0,0],[0,0.75,0,0,0],[0,1,0,0,0],[0.25,0,0,0,0],[0.25,1,0,0,0],[0.5,0,0,0,0],[0.5,1,0,0,0],[0.75,0,0,0,0],[0.75,1,0,0,0],[1,0,0,0,0],[1,0.25,0,0,0],[1,0.5,0,0,0],[1,0.75,0,0,0],[1,1,0,0,0]];" parent="WIyWlLk6GJQsqaUBKTNV-1" vertex="1">
          <mxGeometry x="630" y="190" width="150" height="340" as="geometry" />
        </mxCell>
        <mxCell id="7J45QRhB3qLV9kXO11zj-13" value="ID DAT PHONG: string&lt;div&gt;&lt;br&gt;&lt;/div&gt;&lt;div&gt;NGAY DAT: string&lt;/div&gt;&lt;div&gt;&lt;br&gt;&lt;/div&gt;&lt;div&gt;NGAY NHAN: string&lt;/div&gt;&lt;div&gt;&lt;br&gt;&lt;/div&gt;&lt;div&gt;NGAY TRA: string&lt;/div&gt;&lt;div&gt;&lt;br&gt;&lt;/div&gt;&lt;div&gt;ID KHACH HANG: string&lt;/div&gt;&lt;div&gt;&lt;br&gt;&lt;/div&gt;&lt;div&gt;&lt;br&gt;&lt;/div&gt;&lt;div&gt;TRANG THAI: int&lt;/div&gt;" style="text;strokeColor=none;fillColor=none;align=left;verticalAlign=middle;spacingLeft=4;spacingRight=4;overflow=hidden;points=[[0,0.5],[1,0.5]];portConstraint=eastwest;rotatable=0;whiteSpace=wrap;html=1;" parent="7J45QRhB3qLV9kXO11zj-12" vertex="1">
          <mxGeometry y="30" width="150" height="210" as="geometry" />
        </mxCell>
        <mxCell id="7J45QRhB3qLV9kXO11zj-14" value="TAO DON DAT PHONG&lt;div&gt;&lt;br&gt;&lt;/div&gt;&lt;div&gt;HUY DON DAT PHONG&lt;/div&gt;&lt;div&gt;&lt;br&gt;&lt;/div&gt;&lt;div&gt;CAP NHAT&amp;nbsp;&lt;/div&gt;" style="text;strokeColor=none;fillColor=none;align=left;verticalAlign=middle;spacingLeft=4;spacingRight=4;overflow=hidden;points=[[0,0.5],[1,0.5]];portConstraint=eastwest;rotatable=0;whiteSpace=wrap;html=1;" parent="7J45QRhB3qLV9kXO11zj-12" vertex="1">
          <mxGeometry y="240" width="150" height="100" as="geometry" />
        </mxCell>
        <mxCell id="7J45QRhB3qLV9kXO11zj-18" value="" style="endArrow=none;html=1;rounded=0;exitX=-0.008;exitY=0.004;exitDx=0;exitDy=0;exitPerimeter=0;" parent="7J45QRhB3qLV9kXO11zj-12" source="7J45QRhB3qLV9kXO11zj-14" edge="1">
          <mxGeometry width="50" height="50" relative="1" as="geometry">
            <mxPoint x="-160" y="110" as="sourcePoint" />
            <mxPoint x="150" y="240" as="targetPoint" />
          </mxGeometry>
        </mxCell>
        <mxCell id="7J45QRhB3qLV9kXO11zj-60" value="" style="endArrow=classic;startArrow=classic;html=1;rounded=0;entryX=0.001;entryY=0.256;entryDx=0;entryDy=0;entryPerimeter=0;exitX=0.001;exitY=0.256;exitDx=0;exitDy=0;exitPerimeter=0;" parent="7J45QRhB3qLV9kXO11zj-12" edge="1" source="7J45QRhB3qLV9kXO11zj-14">
          <mxGeometry width="50" height="50" relative="1" as="geometry">
            <mxPoint x="-120" y="260" as="sourcePoint" />
            <mxPoint x="-140" y="266" as="targetPoint" />
          </mxGeometry>
        </mxCell>
        <mxCell id="7J45QRhB3qLV9kXO11zj-19" value="THANH TOAN" style="swimlane;fontStyle=0;childLayout=stackLayout;horizontal=1;startSize=30;horizontalStack=0;resizeParent=1;resizeParentMax=0;resizeLast=0;collapsible=1;marginBottom=0;whiteSpace=wrap;html=1;" parent="WIyWlLk6GJQsqaUBKTNV-1" vertex="1">
          <mxGeometry x="360" y="600" width="200" height="260" as="geometry" />
        </mxCell>
        <mxCell id="7J45QRhB3qLV9kXO11zj-20" value="ID HOA DON: string&lt;div&gt;&lt;br&gt;&lt;/div&gt;&lt;div&gt;ID DAT PHONG: string&lt;/div&gt;&lt;div&gt;&lt;br&gt;&lt;/div&gt;&lt;div&gt;NGAY THANH TOAN: string&lt;/div&gt;&lt;div&gt;&lt;br&gt;&lt;/div&gt;&lt;div&gt;PHUONG THUC: string&lt;/div&gt;" style="text;strokeColor=none;fillColor=none;align=left;verticalAlign=middle;spacingLeft=4;spacingRight=4;overflow=hidden;points=[[0,0.5],[1,0.5]];portConstraint=eastwest;rotatable=0;whiteSpace=wrap;html=1;" parent="7J45QRhB3qLV9kXO11zj-19" vertex="1">
          <mxGeometry y="30" width="200" height="130" as="geometry" />
        </mxCell>
        <mxCell id="7J45QRhB3qLV9kXO11zj-21" value="TAO HOA DON&lt;div&gt;&lt;br&gt;&lt;/div&gt;&lt;div&gt;XAC NHAN HOA DON&lt;/div&gt;&lt;div&gt;&lt;br&gt;&lt;/div&gt;&lt;div&gt;KIEM TRA LICH SU THANH TOAN&lt;/div&gt;" style="text;strokeColor=none;fillColor=none;align=left;verticalAlign=middle;spacingLeft=4;spacingRight=4;overflow=hidden;points=[[0,0.5],[1,0.5]];portConstraint=eastwest;rotatable=0;whiteSpace=wrap;html=1;" parent="7J45QRhB3qLV9kXO11zj-19" vertex="1">
          <mxGeometry y="160" width="200" height="100" as="geometry" />
        </mxCell>
        <mxCell id="7J45QRhB3qLV9kXO11zj-24" value="" style="endArrow=none;html=1;rounded=0;entryX=1.003;entryY=0;entryDx=0;entryDy=0;entryPerimeter=0;" parent="7J45QRhB3qLV9kXO11zj-19" target="7J45QRhB3qLV9kXO11zj-21" edge="1">
          <mxGeometry width="50" height="50" relative="1" as="geometry">
            <mxPoint x="2" y="160" as="sourcePoint" />
            <mxPoint x="470" y="250" as="targetPoint" />
          </mxGeometry>
        </mxCell>
        <mxCell id="7J45QRhB3qLV9kXO11zj-27" value="LOAI PHONG" style="swimlane;fontStyle=0;childLayout=stackLayout;horizontal=1;startSize=30;horizontalStack=0;resizeParent=1;resizeParentMax=0;resizeLast=0;collapsible=1;marginBottom=0;whiteSpace=wrap;html=1;" parent="WIyWlLk6GJQsqaUBKTNV-1" vertex="1">
          <mxGeometry x="20" y="390" width="140" height="160" as="geometry" />
        </mxCell>
        <mxCell id="7J45QRhB3qLV9kXO11zj-28" value="&lt;div&gt;ID LOAI PHONG: char&lt;/div&gt;&lt;div&gt;&lt;br&gt;&lt;/div&gt;LOAI PHONG: string&lt;div&gt;&lt;br&gt;&lt;/div&gt;&lt;div&gt;DON GIA: int&lt;br&gt;&lt;div&gt;&lt;br&gt;&lt;/div&gt;&lt;div&gt;HE SO DICH VU: int&lt;/div&gt;&lt;/div&gt;" style="text;strokeColor=none;fillColor=none;align=left;verticalAlign=middle;spacingLeft=4;spacingRight=4;overflow=hidden;points=[[0,0.5],[1,0.5]];portConstraint=eastwest;rotatable=0;whiteSpace=wrap;html=1;" parent="7J45QRhB3qLV9kXO11zj-27" vertex="1">
          <mxGeometry y="30" width="140" height="130" as="geometry" />
        </mxCell>
        <mxCell id="7J45QRhB3qLV9kXO11zj-33" value="CHUC VU" style="swimlane;fontStyle=0;childLayout=stackLayout;horizontal=1;startSize=30;horizontalStack=0;resizeParent=1;resizeParentMax=0;resizeLast=0;collapsible=1;marginBottom=0;whiteSpace=wrap;html=1;" parent="WIyWlLk6GJQsqaUBKTNV-1" vertex="1">
          <mxGeometry x="20" y="240" width="140" height="120" as="geometry" />
        </mxCell>
        <mxCell id="7J45QRhB3qLV9kXO11zj-34" value="MA CHUC VU: string" style="text;strokeColor=none;fillColor=none;align=left;verticalAlign=middle;spacingLeft=4;spacingRight=4;overflow=hidden;points=[[0,0.5],[1,0.5]];portConstraint=eastwest;rotatable=0;whiteSpace=wrap;html=1;" parent="7J45QRhB3qLV9kXO11zj-33" vertex="1">
          <mxGeometry y="30" width="140" height="30" as="geometry" />
        </mxCell>
        <mxCell id="7J45QRhB3qLV9kXO11zj-35" value="CHUC VU: string" style="text;strokeColor=none;fillColor=none;align=left;verticalAlign=middle;spacingLeft=4;spacingRight=4;overflow=hidden;points=[[0,0.5],[1,0.5]];portConstraint=eastwest;rotatable=0;whiteSpace=wrap;html=1;" parent="7J45QRhB3qLV9kXO11zj-33" vertex="1">
          <mxGeometry y="60" width="140" height="30" as="geometry" />
        </mxCell>
        <mxCell id="7J45QRhB3qLV9kXO11zj-36" value="HE SO LUONG: double" style="text;strokeColor=none;fillColor=none;align=left;verticalAlign=middle;spacingLeft=4;spacingRight=4;overflow=hidden;points=[[0,0.5],[1,0.5]];portConstraint=eastwest;rotatable=0;whiteSpace=wrap;html=1;" parent="7J45QRhB3qLV9kXO11zj-33" vertex="1">
          <mxGeometry y="90" width="140" height="30" as="geometry" />
        </mxCell>
        <mxCell id="7J45QRhB3qLV9kXO11zj-38" value="DICH VU" style="swimlane;fontStyle=0;childLayout=stackLayout;horizontal=1;startSize=30;horizontalStack=0;resizeParent=1;resizeParentMax=0;resizeLast=0;collapsible=1;marginBottom=0;whiteSpace=wrap;html=1;" parent="WIyWlLk6GJQsqaUBKTNV-1" vertex="1">
          <mxGeometry x="100" y="610" width="140" height="150" as="geometry" />
        </mxCell>
        <mxCell id="7J45QRhB3qLV9kXO11zj-39" value="ID DICH VU: string" style="text;strokeColor=none;fillColor=none;align=left;verticalAlign=middle;spacingLeft=4;spacingRight=4;overflow=hidden;points=[[0,0.5],[1,0.5]];portConstraint=eastwest;rotatable=0;whiteSpace=wrap;html=1;" parent="7J45QRhB3qLV9kXO11zj-38" vertex="1">
          <mxGeometry y="30" width="140" height="30" as="geometry" />
        </mxCell>
        <mxCell id="7J45QRhB3qLV9kXO11zj-40" value="TEN DICH VU: string&lt;div&gt;&lt;br&gt;&lt;/div&gt;&lt;div&gt;DON GIA: int&lt;br&gt;&lt;/div&gt;" style="text;strokeColor=none;fillColor=none;align=left;verticalAlign=middle;spacingLeft=4;spacingRight=4;overflow=hidden;points=[[0,0.5],[1,0.5]];portConstraint=eastwest;rotatable=0;whiteSpace=wrap;html=1;" parent="7J45QRhB3qLV9kXO11zj-38" vertex="1">
          <mxGeometry y="60" width="140" height="60" as="geometry" />
        </mxCell>
        <mxCell id="7J45QRhB3qLV9kXO11zj-41" value="TINH TIEN DICH VU" style="text;strokeColor=none;fillColor=none;align=left;verticalAlign=middle;spacingLeft=4;spacingRight=4;overflow=hidden;points=[[0,0.5],[1,0.5]];portConstraint=eastwest;rotatable=0;whiteSpace=wrap;html=1;" parent="7J45QRhB3qLV9kXO11zj-38" vertex="1">
          <mxGeometry y="120" width="140" height="30" as="geometry" />
        </mxCell>
        <mxCell id="7J45QRhB3qLV9kXO11zj-55" value="" style="endArrow=none;html=1;rounded=0;exitX=0.003;exitY=1.013;exitDx=0;exitDy=0;exitPerimeter=0;entryX=1.003;entryY=0.011;entryDx=0;entryDy=0;entryPerimeter=0;" parent="7J45QRhB3qLV9kXO11zj-38" source="7J45QRhB3qLV9kXO11zj-40" target="7J45QRhB3qLV9kXO11zj-41" edge="1">
          <mxGeometry width="50" height="50" relative="1" as="geometry">
            <mxPoint x="390" y="140" as="sourcePoint" />
            <mxPoint x="440" y="90" as="targetPoint" />
          </mxGeometry>
        </mxCell>
        <mxCell id="7J45QRhB3qLV9kXO11zj-49" value="" style="endArrow=classic;html=1;rounded=0;exitX=0.5;exitY=1;exitDx=0;exitDy=0;exitPerimeter=0;entryX=0.5;entryY=0;entryDx=0;entryDy=0;" parent="WIyWlLk6GJQsqaUBKTNV-1" source="7J45QRhB3qLV9kXO11zj-12" target="7J45QRhB3qLV9kXO11zj-19" edge="1">
          <mxGeometry width="50" height="50" relative="1" as="geometry">
            <mxPoint x="460" y="490" as="sourcePoint" />
            <mxPoint x="510" y="440" as="targetPoint" />
            <Array as="points">
              <mxPoint x="705" y="560" />
              <mxPoint x="460" y="560" />
            </Array>
          </mxGeometry>
        </mxCell>
        <mxCell id="7J45QRhB3qLV9kXO11zj-50" value="" style="endArrow=classic;html=1;rounded=0;entryX=-0.01;entryY=0.148;entryDx=0;entryDy=0;entryPerimeter=0;exitX=-0.01;exitY=0.148;exitDx=0;exitDy=0;exitPerimeter=0;" parent="WIyWlLk6GJQsqaUBKTNV-1" source="i3vQC6eebiwim4Twtcch-39" edge="1">
          <mxGeometry width="50" height="50" relative="1" as="geometry">
            <mxPoint x="510" y="150" as="sourcePoint" />
            <mxPoint x="140" y="104" as="targetPoint" />
          </mxGeometry>
        </mxCell>
        <mxCell id="7J45QRhB3qLV9kXO11zj-51" value="" style="endArrow=classic;html=1;rounded=0;exitX=-0.014;exitY=0.176;exitDx=0;exitDy=0;exitPerimeter=0;entryX=0.998;entryY=0.102;entryDx=0;entryDy=0;entryPerimeter=0;" parent="WIyWlLk6GJQsqaUBKTNV-1" source="7J45QRhB3qLV9kXO11zj-2" target="i3vQC6eebiwim4Twtcch-16" edge="1">
          <mxGeometry width="50" height="50" relative="1" as="geometry">
            <mxPoint x="510" y="150" as="sourcePoint" />
            <mxPoint x="460" y="200" as="targetPoint" />
          </mxGeometry>
        </mxCell>
        <mxCell id="7J45QRhB3qLV9kXO11zj-54" value="" style="endArrow=classic;html=1;rounded=0;exitX=1.003;exitY=0.103;exitDx=0;exitDy=0;exitPerimeter=0;" parent="WIyWlLk6GJQsqaUBKTNV-1" edge="1">
          <mxGeometry width="50" height="50" relative="1" as="geometry">
            <mxPoint x="300" y="380" as="sourcePoint" />
            <mxPoint x="159.47000000000008" y="406.48" as="targetPoint" />
            <Array as="points">
              <mxPoint x="230" y="380" />
              <mxPoint x="230" y="406" />
            </Array>
          </mxGeometry>
        </mxCell>
        <mxCell id="7J45QRhB3qLV9kXO11zj-56" value="" style="endArrow=classic;html=1;rounded=0;entryX=0;entryY=0.5;entryDx=0;entryDy=0;" parent="WIyWlLk6GJQsqaUBKTNV-1" target="7J45QRhB3qLV9kXO11zj-41" edge="1">
          <mxGeometry width="50" height="50" relative="1" as="geometry">
            <mxPoint x="40" y="550" as="sourcePoint" />
            <mxPoint x="510" y="600" as="targetPoint" />
            <Array as="points">
              <mxPoint x="41" y="745" />
            </Array>
          </mxGeometry>
        </mxCell>
        <mxCell id="7J45QRhB3qLV9kXO11zj-58" style="edgeStyle=orthogonalEdgeStyle;rounded=0;orthogonalLoop=1;jettySize=auto;html=1;entryX=-0.017;entryY=0.291;entryDx=0;entryDy=0;entryPerimeter=0;exitX=0.492;exitY=0.999;exitDx=0;exitDy=0;exitPerimeter=0;" parent="WIyWlLk6GJQsqaUBKTNV-1" source="7J45QRhB3qLV9kXO11zj-41" target="7J45QRhB3qLV9kXO11zj-21" edge="1">
          <mxGeometry relative="1" as="geometry" />
        </mxCell>
        <mxCell id="7J45QRhB3qLV9kXO11zj-61" value="" style="endArrow=classic;startArrow=classic;html=1;rounded=0;exitX=1.024;exitY=0.057;exitDx=0;exitDy=0;exitPerimeter=0;entryX=0.5;entryY=0;entryDx=0;entryDy=0;entryPerimeter=0;" parent="WIyWlLk6GJQsqaUBKTNV-1" source="7J45QRhB3qLV9kXO11zj-4" target="7J45QRhB3qLV9kXO11zj-12" edge="1">
          <mxGeometry width="50" height="50" relative="1" as="geometry">
            <mxPoint x="460" y="240" as="sourcePoint" />
            <mxPoint x="510" y="190" as="targetPoint" />
            <Array as="points">
              <mxPoint x="705" y="82" />
            </Array>
          </mxGeometry>
        </mxCell>
        <mxCell id="7J45QRhB3qLV9kXO11zj-37" style="edgeStyle=orthogonalEdgeStyle;rounded=0;orthogonalLoop=1;jettySize=auto;html=1;exitX=0;exitY=0.667;exitDx=0;exitDy=0;exitPerimeter=0;" parent="WIyWlLk6GJQsqaUBKTNV-1" source="i3vQC6eebiwim4Twtcch-45" target="7J45QRhB3qLV9kXO11zj-33" edge="1">
          <mxGeometry relative="1" as="geometry">
            <Array as="points">
              <mxPoint x="240" y="170" />
              <mxPoint x="240" y="300" />
            </Array>
          </mxGeometry>
        </mxCell>
      </root>
    </mxGraphModel>
  </diagram>
</mxfile>
